<?xml version="1.0" encoding="utf-8"?>
<!-- Generator: Adobe Illustrator 25.2.1, SVG Export Plug-In . SVG Version: 6.00 Build 0)  -->
<svg version="1.1" id="Layer_1" xmlns="http://www.w3.org/2000/svg" xmlns:xlink="http://www.w3.org/1999/xlink" x="0px" y="0px"
	 viewBox="0 0 500 500" style="enable-background:new 0 0 500 500;" xml:space="preserve">
<style type="text/css">
	.st0{fill:#DB0812;}
	.st1{fill:#FFFFFF;}
</style>
<g>
	<path class="st0" d="M498.6,249.7c0,137.3-111.4,248.6-248.7,248.6S1.3,387,1.3,249.7S112.6,1,250,1S498.6,112.3,498.6,249.7z"/>
</g>
<path class="st1" d="M427.3,211c-6.8-16.2-18.3-30-32.7-39.7c-7.2-4.9-15.1-8.7-23.6-11.3c-8.5-2.7-17.5-4.1-26.9-4.1
	c-6.3,0-12.5,0.8-18.4,2.1c-11.1,2.5-21.3,7.2-30.4,13.1c-8,5.1-15.4,11.2-22.2,17.8c-6.8,6.6-13.3,13.8-19.4,21.1
	c5.2,6.3,10.2,12.7,15.1,19l0.4,0.5c2.5,3.1,4.9,6.3,7.4,9.5c0.5-0.6,1-1.2,1.5-1.8c5.6-6.8,11.1-13.2,16.7-18.8
	c4.2-4.2,8.3-8,12.4-11.3c6.2-4.9,12.3-8.7,18.4-11.2c3-1.2,6-2.3,9.1-2.9c3.1-0.6,6.2-1,9.5-1c7.5,0,14.6,1.5,21.1,4.2
	c9.7,4.1,18,11,23.9,19.6c2.9,4.3,5.2,9.1,6.8,14.2c1.5,5.1,2.4,10.5,2.4,16.1c0,7.6-1.5,14.6-4.3,21.1c-4.1,9.7-11,18-19.7,23.9
	c-4.3,2.9-9.1,5.2-14.1,6.8c-5.1,1.6-10.4,2.4-16.1,2.4c-3.7,0-7-0.4-10.4-1.1c-5.9-1.4-11.6-3.8-17.6-7.4
	c-4.4-2.8-8.8-6.2-13.3-10.1c-6.7-5.9-13.5-13.1-20.3-21.1c-6.8-8-13.5-16.7-20.5-25.6c-7.1-9-14.2-18.3-21.8-27.1
	c-5.7-6.6-11.7-13.1-18-19.2c-4.7-4.6-9.6-8.8-14.9-12.7c-7.8-5.9-16.3-10.9-25.7-14.5c-9.3-3.6-19.6-5.7-30.2-5.7
	c-12.4,0-24.4,2.5-35.2,7.1c-16.3,6.8-30,18.2-39.7,32.6c-4.8,7.3-8.7,15.2-11.4,23.7c-2.6,8.5-4.1,17.6-4.1,26.8
	c0,12.4,2.6,24.3,7.1,35.2c6.8,16.2,18.3,30,32.7,39.7c7.3,4.9,15.1,8.7,23.6,11.4c8.5,2.6,17.5,4,26.9,4c6.3,0,12.5-0.7,18.4-2
	c11.1-2.6,21.2-7.3,30.4-13.2c4.2-2.7,8.3-5.8,12.2-9l15.6,15.6l5.1-60.9l-61.2,4.8l14.8,14.8c-5.7,4.3-11.2,7.7-16.7,10
	c-3,1.2-6.1,2.2-9.1,2.9c-3.1,0.6-6.2,0.9-9.5,0.9c-7.6,0-14.7-1.5-21.1-4.2c-9.6-4-18.1-11-23.8-19.6c-3-4.3-5.3-9.2-6.9-14.2
	c-1.5-5.1-2.4-10.5-2.4-16.2c0-7.5,1.5-14.6,4.3-21.1c4-9.7,10.9-18,19.5-23.9c4.3-2.9,9.1-5.2,14.2-6.7c5.1-1.6,10.5-2.5,16.2-2.5
	c3.6,0,7,0.5,10.3,1.2c5.9,1.4,11.7,3.8,17.6,7.5c4.4,2.7,8.8,6.2,13.3,10.1c6.8,5.9,13.4,13.1,20.2,21.1s13.6,16.7,20.5,25.6
	c7,8.9,14.2,18.3,21.9,27.1c5.7,6.6,11.6,13.1,17.9,19.2c4.6,4.6,9.6,8.8,14.8,12.7c7.8,5.9,16.4,10.9,25.7,14.5
	c9.4,3.6,19.6,5.7,30.3,5.7c12.5,0,24.3-2.5,35.1-7.1c16.3-6.8,30-18.2,39.7-32.7c4.9-7.2,8.7-15.1,11.4-23.6
	c2.6-8.5,4.1-17.5,4.1-26.9C434.4,233.8,431.9,221.8,427.3,211z"/>
</svg>
